<?xml version="1.0" standalone="no"?>
<!DOCTYPE svg PUBLIC "-//W3C//DTD SVG 20010904//EN"
 "http://www.w3.org/TR/2001/REC-SVG-20010904/DTD/svg10.dtd">
<svg version="1.0" xmlns="http://www.w3.org/2000/svg"
 width="260.000000pt" height="260.000000pt" viewBox="0 0 260.000000 260.000000"
 preserveAspectRatio="xMidYMid meet">
<metadata>
Created by potrace 1.11, written by Peter Selinger 2001-2013
</metadata>
<g transform="translate(0.000000,260.000000) scale(0.100000,-0.100000)"
fill="#000000" stroke="none">
<path d="M0 1300 l0 -1300 1300 0 1300 0 0 1300 0 1300 -1300 0 -1300 0 0
-1300z m1119 1004 c-11 -13 -10 -15 3 -12 10 1 24 -6 32 -17 15 -20 15 -20 11
1 -3 19 1 21 28 17 45 -5 48 -5 87 0 19 3 44 0 55 -6 18 -9 19 -9 6 6 -17 21
-8 22 13 1 9 -9 21 -12 28 -7 21 12 40 12 35 0 -6 -15 65 -17 75 -2 5 6 8 5 8
-4 0 -9 8 -11 24 -7 19 5 26 1 31 -14 4 -11 11 -17 17 -14 6 4 5 10 -3 15 -24
16 37 2 63 -14 12 -8 33 -13 45 -11 16 3 21 -1 19 -14 -2 -11 8 -22 30 -33 19
-9 34 -13 34 -8 0 18 21 8 31 -15 8 -16 18 -22 34 -21 16 2 25 -3 28 -16 5
-20 33 -17 50 5 5 6 5 0 2 -13 -5 -16 -4 -21 4 -17 10 7 16 -7 12 -28 -1 -5 6
-3 15 5 16 13 17 12 12 -7 -4 -16 -1 -21 11 -20 9 1 17 -8 19 -21 2 -13 7 -23
12 -23 5 0 7 6 4 14 -3 8 -1 17 5 21 7 3 8 0 5 -9 -3 -9 -1 -16 5 -16 9 0 9
-6 0 -22 l-12 -23 23 20 c13 11 20 14 16 7 -4 -7 -1 -15 9 -18 13 -6 14 -8 3
-15 -10 -7 -8 -11 9 -15 13 -4 20 -10 17 -15 -3 -5 1 -9 9 -9 8 0 18 -7 21
-16 3 -8 2 -12 -4 -9 -6 3 -10 0 -10 -8 0 -8 7 -17 15 -21 8 -3 15 -1 15 5 0
6 4 8 10 4 5 -3 7 -12 4 -19 -3 -8 0 -17 5 -21 6 -3 8 -12 4 -18 -5 -8 -2 -8
9 0 13 11 15 9 14 -10 -1 -12 -5 -27 -8 -32 -4 -6 2 -12 14 -12 11 -1 22 -4
25 -7 10 -10 10 -41 -1 -49 -7 -5 -6 -7 4 -6 31 3 36 -2 38 -38 2 -21 10 -49
19 -62 8 -13 11 -21 5 -17 -6 3 -5 -4 1 -18 8 -16 14 -21 19 -13 5 7 8 8 8 1
0 -5 -5 -15 -12 -22 -9 -9 -9 -12 0 -12 7 0 12 -5 12 -11 0 -5 -4 -7 -10 -4
-5 3 -10 1 -10 -4 0 -6 6 -11 14 -11 8 0 17 -7 20 -16 5 -12 2 -15 -9 -10 -10
3 -13 2 -10 -5 4 -5 2 -16 -4 -23 -8 -9 -7 -13 4 -13 8 0 11 5 8 10 -4 6 -1 7
6 2 9 -5 10 -10 2 -18 -7 -7 -7 -14 0 -24 9 -10 8 -13 -1 -13 -9 0 -8 -7 3
-24 12 -17 13 -26 4 -35 -8 -8 -6 -11 9 -11 16 0 17 -2 4 -10 -8 -5 -12 -10
-7 -10 4 0 0 -11 -8 -24 -14 -21 -14 -25 0 -39 17 -17 20 -31 5 -22 -16 10
-12 -7 8 -28 17 -19 16 -19 -5 -6 -19 11 -24 11 -35 0 -7 -8 -8 -11 -3 -8 6 3
18 -1 28 -8 16 -11 16 -13 2 -19 -11 -4 -14 -2 -9 7 4 7 1 7 -7 -2 -11 -10
-11 -15 -1 -18 19 -7 15 -53 -5 -53 -9 0 -13 -3 -10 -7 4 -3 0 -15 -10 -25 -9
-11 -11 -18 -5 -18 7 0 12 5 12 11 0 5 5 7 12 3 9 -6 9 -9 0 -12 -7 -2 -9 -9
-6 -14 4 -6 2 -8 -3 -5 -6 4 -14 0 -17 -9 -3 -8 -2 -12 4 -9 6 3 10 1 10 -4 0
-6 -8 -11 -17 -11 -13 0 -14 -3 -6 -11 8 -8 8 -20 3 -35 -5 -13 -6 -24 -2 -24
4 0 -6 -11 -21 -24 -19 -17 -24 -26 -15 -29 8 -3 6 -6 -5 -6 -12 -1 -16 -5
-10 -13 4 -7 8 -20 10 -28 1 -10 -3 -9 -13 4 -14 19 -14 19 -14 -3 0 -14 -4
-20 -12 -15 -7 5 -9 2 -5 -8 3 -9 -1 -25 -9 -37 -8 -12 -12 -26 -8 -33 4 -7 3
-8 -4 -4 -7 4 -12 2 -12 -4 0 -6 -5 -8 -12 -4 -8 5 -7 0 2 -11 9 -11 10 -16 3
-11 -8 4 -13 2 -13 -8 0 -8 -5 -18 -12 -22 -6 -4 -8 -3 -5 3 4 6 0 13 -8 17
-11 4 -15 -2 -16 -24 -2 -43 -3 -47 -13 -57 -5 -5 -6 -3 -2 5 4 6 3 12 -3 12
-5 0 -14 -12 -20 -27 l-11 -28 5 28 c3 15 1 27 -5 27 -5 0 -9 -3 -9 -7 1 -5 1
-15 0 -23 -1 -13 -2 -13 -12 0 -9 12 -10 11 -6 -7 3 -13 0 -26 -5 -30 -7 -3
-8 -1 -4 5 4 7 1 12 -8 12 -10 0 -13 -6 -10 -15 4 -9 0 -15 -7 -15 -11 0 -11
-2 1 -10 12 -7 10 -9 -7 -7 -12 0 -19 5 -17 9 3 4 1 8 -4 8 -6 0 -12 -7 -16
-15 -3 -8 -1 -15 5 -15 6 0 7 -5 4 -10 -4 -6 -10 -8 -15 -5 -12 8 -33 -23 -24
-37 6 -10 4 -10 -9 0 -9 8 -22 10 -28 6 -9 -5 -10 -2 -6 10 4 10 3 15 -3 11
-6 -3 -10 -13 -10 -21 0 -8 -5 -14 -11 -14 -5 0 -7 5 -4 11 4 6 -2 5 -13 -2
-14 -9 -18 -17 -11 -25 6 -8 2 -10 -16 -9 -14 2 -27 -1 -31 -6 -3 -5 -10 -6
-16 -3 -6 4 -8 2 -5 -3 8 -13 -17 -36 -27 -26 -4 4 -4 0 0 -10 8 -22 -12 -22
-25 0 -9 16 -11 16 -31 -2 -29 -27 -94 -56 -98 -44 -2 5 -8 9 -13 9 -6 0 -8
-4 -5 -9 3 -4 -6 -13 -20 -20 -18 -8 -23 -8 -18 0 4 8 -1 9 -17 4 -13 -5 -33
-8 -44 -9 -12 -1 -21 -10 -25 -26 l-6 -25 -6 24 c-4 13 -11 20 -17 16 -6 -3
-15 4 -20 17 -8 20 -10 21 -16 6 -9 -23 -26 -23 -19 -1 5 14 4 15 -4 4 -6 -8
-15 -10 -23 -5 -11 6 -12 5 -2 -7 10 -13 10 -16 -2 -16 -8 0 -15 5 -15 10 0 5
-7 7 -15 4 -8 -4 -17 -2 -20 3 -8 13 -25 13 -25 -1 0 -5 5 -7 12 -3 6 4 8 3 5
-4 -9 -13 -48 -3 -65 17 -8 9 -11 11 -8 5 3 -7 -1 -14 -9 -17 -9 -4 -12 -1 -9
7 3 7 -2 13 -11 13 -8 0 -15 -4 -15 -9 0 -5 -11 -1 -24 7 -15 10 -25 12 -28 5
-1 -5 -16 2 -31 16 -16 14 -31 23 -34 20 -3 -3 -14 -1 -24 4 -13 8 -21 6 -29
-7 -8 -12 -10 -13 -7 -3 2 8 -5 24 -16 35 -20 20 -20 20 -8 -2 14 -27 14 -44
0 -20 -6 9 -14 15 -19 12 -12 -7 -32 30 -22 40 4 5 1 5 -6 1 -7 -4 -10 -12 -7
-17 4 -5 1 -9 -4 -9 -6 0 -11 5 -11 11 0 5 -4 8 -9 5 -5 -3 -21 4 -35 15 -15
12 -33 18 -41 15 -9 -3 -12 0 -9 9 3 8 11 16 17 18 7 2 2 3 -9 1 -15 -3 -23 2
-27 16 -3 13 -10 18 -21 14 -9 -3 -13 -11 -10 -18 3 -6 -4 0 -15 13 -12 12
-18 28 -14 33 4 7 -3 9 -19 6 -15 -3 -25 0 -25 6 1 37 -5 46 -25 46 -17 0 -19
3 -10 9 10 6 7 10 -13 15 -22 6 -25 9 -14 22 6 8 9 17 5 21 -3 3 -6 1 -6 -5 0
-7 -4 -12 -10 -12 -5 0 -7 7 -4 15 4 10 0 15 -13 15 -24 0 -43 32 -36 60 6 21
4 22 -22 16 -23 -6 -26 -5 -19 6 14 18 12 50 -4 55 -9 4 -10 -1 -2 -21 12 -33
-1 -34 -16 -2 -9 18 -9 28 0 37 8 9 7 11 -6 6 -12 -4 -15 -2 -11 8 3 8 10 12
16 8 6 -3 7 -1 3 6 -4 6 -10 9 -14 7 -4 -2 -12 2 -19 9 -10 11 -10 15 0 19 7
4 1 4 -12 2 -18 -4 -21 -2 -13 6 7 7 8 16 2 23 -5 6 -10 26 -12 43 -1 17 -7
33 -14 36 -6 2 -10 22 -8 47 2 28 -1 38 -6 29 -12 -19 -18 -12 -22 25 -2 21 1
29 10 27 8 -1 11 2 7 8 -3 6 -11 7 -17 4 -6 -4 -8 -2 -4 4 3 6 -2 15 -11 21
-10 6 -12 11 -5 11 6 0 12 9 12 21 0 11 -4 18 -8 15 -4 -2 -8 4 -8 15 0 10 7
19 16 20 10 0 9 3 -5 9 -11 5 -15 9 -10 9 6 1 16 10 23 22 8 12 9 18 4 15 -6
-3 -13 1 -16 10 -3 8 -2 12 4 9 6 -3 10 0 10 9 0 8 -5 16 -10 18 -6 2 -12 26
-14 53 -2 28 -2 42 1 33 5 -19 18 -24 27 -9 3 5 -1 14 -9 21 -14 12 -13 16 5
35 18 19 19 23 6 28 -11 4 -13 1 -10 -11 5 -14 4 -14 -4 -3 -8 11 -5 21 14 38
24 22 33 40 14 28 -5 -3 -10 1 -10 10 0 10 5 13 12 9 7 -4 2 6 -12 22 -14 15
-18 23 -9 16 14 -10 18 -9 24 10 4 13 7 28 6 35 -1 6 3 14 9 18 6 4 8 -1 4
-12 -4 -15 -3 -14 7 2 7 11 16 23 21 26 14 9 12 20 -4 30 -10 7 -9 9 5 9 20 0
23 16 5 24 -9 3 -8 9 6 20 10 8 15 20 11 26 -3 6 -3 10 2 9 20 -3 31 2 37 19
3 9 9 23 12 30 3 7 -2 12 -13 13 -16 0 -16 1 2 8 11 5 23 7 26 5 4 -2 12 3 19
11 10 12 10 15 -1 16 -8 0 -3 5 10 10 16 6 21 14 17 25 -6 15 -4 15 10 3 14
-11 15 -10 12 7 -2 11 2 18 10 16 6 -1 12 7 12 18 0 20 32 44 44 33 3 -3 6 1
6 11 0 10 -5 14 -12 10 -7 -4 -8 -3 -4 4 4 6 14 8 23 5 12 -5 14 -3 8 7 -5 9
-4 11 3 6 6 -4 28 2 49 13 21 11 34 20 30 21 -5 0 -17 -5 -28 -10 -11 -6 -19
-7 -19 -1 0 5 17 13 38 19 20 5 29 10 20 11 -10 1 -18 5 -18 10 0 6 9 8 21 6
23 -5 49 15 49 37 0 10 3 9 11 -2 8 -12 10 -10 5 10 -4 22 -4 23 8 8 13 -18
42 -26 32 -9 -3 5 10 19 30 30 31 18 35 19 30 5 -5 -13 -4 -14 7 -6 8 7 16 9
19 6 3 -3 9 0 14 7 4 7 3 10 -4 5 -6 -3 -13 -2 -16 3 -7 11 13 9 33 -3 11 -7
13 -5 8 7 -6 17 -2 19 40 20 15 0 20 4 15 15 -4 11 -1 14 11 9 12 -4 17 -1 18
11 0 10 3 12 6 4 8 -20 41 -34 49 -20 4 7 3 8 -4 4 -21 -13 -12 15 11 35 27
23 34 24 16 3z m161 6 c-8 -5 -19 -10 -25 -10 -5 0 -3 5 5 10 8 5 20 10 25 10
6 0 3 -5 -5 -10z m185 -21 c-3 -4 -13 -5 -22 -2 -11 4 -13 8 -5 11 7 2 9 9 5
15 -4 7 1 6 10 -2 9 -7 14 -17 12 -22z m295 -93 c-7 -7 -14 -6 -21 1 -9 9 -7
12 9 10 14 -1 18 -5 12 -11z m502 -558 c-6 -6 -7 0 -4 19 5 21 7 23 10 9 2
-10 0 -22 -6 -28z m-1969 -153 c4 -8 3 -16 -1 -19 -4 -3 -9 4 -9 15 -2 23 3
25 10 4z m2035 -218 c8 -10 6 -13 -11 -14 -12 0 -16 1 -9 4 6 3 10 9 6 14 -8
14 2 11 14 -4z m-1968 -327 c0 -5 -2 -10 -4 -10 -3 0 -8 5 -11 10 -3 6 -1 10
4 10 6 0 11 -4 11 -10z m1464 -525 c-4 -8 -8 -15 -10 -15 -2 0 -4 7 -4 15 0 8
4 15 10 15 5 0 7 -7 4 -15z m-44 -16 c0 -4 -6 -9 -13 -12 -8 -3 -14 0 -14 7 0
7 6 13 14 13 7 0 13 -4 13 -8z m-114 -58 c-4 -6 -13 -11 -19 -10 -9 0 -9 2 0
5 7 3 9 13 6 22 -5 13 -3 14 7 5 7 -6 9 -16 6 -22z m-693 -6 c-3 -9 -8 -14
-10 -11 -3 3 -2 9 2 15 9 16 15 13 8 -4z m29 -21 c-8 -14 -9 -13 -9 10 0 18 3
24 9 18 7 -7 7 -16 0 -28z"/>
<path d="M1308 2273 c7 -3 16 -2 19 1 4 3 -2 6 -13 5 -11 0 -14 -3 -6 -6z"/>
<path d="M1590 2244 c0 -8 5 -12 10 -9 6 4 8 11 5 16 -9 14 -15 11 -15 -7z"/>
<path d="M581 1984 c0 -11 3 -14 6 -6 3 7 2 16 -1 19 -3 4 -6 -2 -5 -13z"/>
<path d="M480 1831 c0 -7 -5 -9 -12 -5 -7 5 -8 3 -3 -5 5 -9 10 -10 18 -2 6 6
8 14 4 18 -4 3 -7 1 -7 -6z"/>
<path d="M440 1779 c0 -5 5 -7 10 -4 6 3 10 8 10 11 0 2 -4 4 -10 4 -5 0 -10
-5 -10 -11z"/>
<path d="M361 1621 c-7 -5 -12 -14 -10 -20 2 -6 10 -2 17 9 14 22 13 23 -7 11z"/>
<path d="M2281 1104 c0 -11 3 -14 6 -6 3 7 2 16 -1 19 -3 4 -6 -2 -5 -13z"/>
<path d="M2217 939 c9 -9 8 -17 -5 -37 -16 -24 -15 -24 4 -12 25 15 28 46 6
55 -13 5 -14 3 -5 -6z"/>
<path d="M2135 780 c-3 -5 -1 -10 4 -10 6 0 11 5 11 10 0 6 -2 10 -4 10 -3 0
-8 -4 -11 -10z"/>
<path d="M2091 694 c0 -11 3 -14 6 -6 3 7 2 16 -1 19 -3 4 -6 -2 -5 -13z"/>
<path d="M2046 644 c-3 -9 -11 -12 -18 -8 -7 4 -9 3 -5 -1 14 -16 33 -13 34 6
2 23 -3 24 -11 3z"/>
<path d="M1890 501 c0 -7 -4 -9 -10 -6 -5 3 -10 1 -10 -4 0 -6 4 -11 9 -11 13
0 25 20 17 27 -3 4 -6 1 -6 -6z"/>
</g>
</svg>
